<svg xmlns="http://www.w3.org/2000/svg" width="306.489" height="299.17" viewBox="0 0 306.489 299.17">
  <g id="Group_28" data-name="Group 28" transform="translate(-0.001 -0.004)">
    <path id="Path_38" data-name="Path 38" d="M491.374,216.051H408.788a7.107,7.107,0,0,0-7.1,7.1V406.7l-.946.289-20.26,6.2a3.789,3.789,0,0,1-4.728-2.513L315.493,213.831a3.787,3.787,0,0,1,2.513-4.728l31.22-9.559,90.508-27.7,31.22-9.56a3.781,3.781,0,0,1,4.728,2.508l15.4,50.315Z" transform="translate(-296.801 -148.766)" fill="#f2f2f2"/>
    <path id="Path_39" data-name="Path 39" d="M488.775,200.251,470.21,139.61a8.042,8.042,0,0,0-10.047-5.338L416.27,147.707l-90.5,27.708-43.893,13.44a8.052,8.052,0,0,0-5.338,10.047L339.988,406.15a8.058,8.058,0,0,0,7.7,5.693,7.946,7.946,0,0,0,2.352-.355l30.089-9.209.946-.293V401l-.946.289-30.368,9.3a7.106,7.106,0,0,1-8.864-4.709L277.444,198.623a7.089,7.089,0,0,1,4.709-8.864l43.893-13.44,90.5-27.7,43.893-13.44a7.091,7.091,0,0,1,8.864,4.709l18.48,60.367.293.946h.984Z" transform="translate(-276.182 -133.913)" fill="#3f3d56"/>
    <path id="Path_40" data-name="Path 40" d="M387.333,201.717a4.267,4.267,0,0,1-4.075-3.013l-6.1-19.91a4.259,4.259,0,0,1,2.826-5.319l83.262-25.491a4.263,4.263,0,0,1,5.32,2.826l6.1,19.91a4.264,4.264,0,0,1-2.826,5.32L388.577,201.53A4.248,4.248,0,0,1,387.333,201.717Z" transform="translate(-329.275 -141.225)" fill="#b2bbf7"/>
    <circle id="Ellipse_15" data-name="Ellipse 15" cx="9.465" cy="9.465" r="9.465" transform="translate(80.525 2.347)" fill="#b2bbf7"/>
    <circle id="Ellipse_16" data-name="Ellipse 16" cx="5.993" cy="5.993" r="5.993" transform="translate(83.996 5.818)" fill="#fff"/>
    <path id="Path_41" data-name="Path 41" d="M696.3,493.8H536.341a4.027,4.027,0,0,1-4.023-4.023V298.11a4.027,4.027,0,0,1,4.023-4.023H696.3a4.027,4.027,0,0,1,4.023,4.023V489.773A4.027,4.027,0,0,1,696.3,493.8Z" transform="translate(-411.103 -218.284)" fill="#e6e6e6"/>
    <path id="Path_42" data-name="Path 42" d="M603.481,274.087H503.863a8.056,8.056,0,0,0-8.045,8.045V475.121l.946-.289v-192.7a7.107,7.107,0,0,1,7.1-7.1h99.911Zm86.84,0H503.863a8.056,8.056,0,0,0-8.045,8.045V498.877a8.056,8.056,0,0,0,8.045,8.045H690.321a8.057,8.057,0,0,0,8.045-8.045V282.132A8.057,8.057,0,0,0,690.321,274.087Zm7.1,224.79a7.107,7.107,0,0,1-7.1,7.1H503.863a7.107,7.107,0,0,1-7.1-7.1V282.132a7.107,7.107,0,0,1,7.1-7.1H690.321a7.107,7.107,0,0,1,7.1,7.1Z" transform="translate(-391.876 -207.749)" fill="#3f3d56"/>
    <path id="Path_43" data-name="Path 43" d="M700.154,285.428H613.077a4.264,4.264,0,0,1-4.259-4.259V260.346a4.264,4.264,0,0,1,4.259-4.259h87.077a4.264,4.264,0,0,1,4.259,4.259v20.823A4.264,4.264,0,0,1,700.154,285.428Z" transform="translate(-451.4 -198.267)" fill="#b2bbf7"/>
    <path id="Path_44" data-name="Path 44" d="M9.465,0A9.465,9.465,0,1,1,0,9.465,9.465,9.465,0,0,1,9.465,0Z" transform="translate(195.751 40.31)" fill="#b2bbf7"/>
    <circle id="Ellipse_18" data-name="Ellipse 18" cx="5.765" cy="5.765" r="5.765" transform="translate(199.451 44.01)" fill="#fff"/>
  </g>
</svg>
