<?xml version="1.0" standalone="no"?>
<!DOCTYPE svg PUBLIC "-//W3C//DTD SVG 20010904//EN"
 "http://www.w3.org/TR/2001/REC-SVG-20010904/DTD/svg10.dtd">
<svg version="1.0" xmlns="http://www.w3.org/2000/svg"
 width="100.000000pt" height="100.000000pt" viewBox="0 0 100.000000 100.000000"
 preserveAspectRatio="xMidYMid meet">

<g transform="translate(0.000000,100.000000) scale(0.100000,-0.100000)"
fill="#000000" stroke="none">
<path d="M212 988 c-7 -7 -12 -25 -12 -40 0 -28 0 -28 -68 -28 -40 0 -73 -5
-80 -12 -7 -7 -12 -43 -12 -90 l0 -78 460 0 460 0 0 78 c0 47 -5 83 -12 90 -7
7 -40 12 -80 12 -68 0 -68 0 -68 28 0 37 -17 52 -60 52 -43 0 -60 -15 -60 -52
l0 -28 -180 0 -180 0 0 28 c0 15 -5 33 -12 40 -16 16 -80 16 -96 0z m68 -88
c0 -53 -2 -60 -20 -60 -18 0 -20 7 -20 60 0 53 2 60 20 60 18 0 20 -7 20 -60z
m480 0 c0 -53 -2 -60 -20 -60 -18 0 -20 7 -20 60 0 53 2 60 20 60 18 0 20 -7
20 -60z"/>
<path d="M40 382 c0 -234 3 -321 12 -330 17 -17 879 -17 896 0 9 9 12 96 12
330 l0 318 -460 0 -460 0 0 -318z m300 148 l0 -50 -50 0 -50 0 0 50 0 50 50 0
50 0 0 -50z m140 0 l0 -50 -50 0 -50 0 0 50 0 50 50 0 50 0 0 -50z m140 0 l0
-50 -50 0 -50 0 0 50 0 50 50 0 50 0 0 -50z m140 0 l0 -50 -50 0 -50 0 0 50 0
50 50 0 50 0 0 -50z m-420 -140 l0 -50 -50 0 -50 0 0 50 0 50 50 0 50 0 0 -50z
m140 0 l0 -50 -50 0 -50 0 0 50 0 50 50 0 50 0 0 -50z m140 0 l0 -50 -50 0
-50 0 0 50 0 50 50 0 50 0 0 -50z m140 0 l0 -50 -50 0 -50 0 0 50 0 50 50 0
50 0 0 -50z m-420 -140 l0 -50 -50 0 -50 0 0 50 0 50 50 0 50 0 0 -50z m140 0
l0 -50 -50 0 -50 0 0 50 0 50 50 0 50 0 0 -50z m140 0 l0 -50 -50 0 -50 0 0
50 0 50 50 0 50 0 0 -50z m140 0 l0 -50 -50 0 -50 0 0 50 0 50 50 0 50 0 0
-50z"/>
</g>
</svg>
