<?xml version="1.0" standalone="no"?>
<!DOCTYPE svg PUBLIC "-//W3C//DTD SVG 20010904//EN"
 "http://www.w3.org/TR/2001/REC-SVG-20010904/DTD/svg10.dtd">
<svg version="1.0" xmlns="http://www.w3.org/2000/svg"
 width="64.000000pt" height="64.000000pt" viewBox="0 0 64.000000 64.000000"
 preserveAspectRatio="xMidYMid meet">

<g transform="translate(0.000000,64.000000) scale(0.100000,-0.100000)"
fill="#000000" stroke="none">
<path d="M216 604 c-71 -22 -159 -112 -180 -184 -34 -115 -12 -206 73 -291 85
-85 176 -107 291 -73 75 22 162 109 184 184 34 115 12 206 -73 291 -85 84
-180 108 -295 73z m226 -41 c92 -51 146 -155 135 -261 -15 -145 -149 -254
-295 -239 -145 15 -254 149 -239 295 11 102 92 201 191 232 57 17 150 5 208
-27z"/>
<path d="M215 536 c-60 -28 -87 -56 -114 -116 -29 -64 -27 -125 7 -190 15 -30
33 -56 41 -58 9 -3 12 0 9 9 -7 17 17 49 54 73 27 17 28 17 54 -3 34 -26 54
-26 88 0 26 20 27 20 54 3 37 -24 61 -56 54 -73 -3 -9 0 -12 9 -9 25 7 69 108
69 157 0 51 -35 135 -69 165 -34 31 -36 10 -3 -29 53 -59 65 -161 29 -231 -12
-23 -15 -24 -27 -9 -11 14 -11 18 0 25 10 6 9 18 -7 61 -12 30 -27 74 -34 98
-17 53 -50 80 -107 88 -79 11 -117 -20 -141 -117 -7 -25 -19 -62 -28 -83 -14
-32 -14 -40 -3 -47 12 -7 12 -11 0 -25 -12 -15 -15 -14 -27 9 -7 14 -16 45
-19 68 -17 126 83 238 214 238 17 0 32 5 32 10 0 19 -85 10 -135 -14z m165
-81 c11 -10 27 -44 36 -74 8 -31 22 -69 30 -84 20 -36 13 -43 -25 -26 -34 15
-36 21 -20 48 13 20 4 71 -12 71 -7 0 -9 -10 -5 -24 7 -29 -18 -82 -50 -103
-22 -14 -26 -14 -48 0 -34 23 -56 72 -50 110 5 30 5 31 -10 13 -18 -22 -21
-62 -6 -71 19 -12 10 -30 -21 -44 -38 -17 -44 -10 -25 28 9 16 21 53 27 82 7
31 21 62 36 77 21 21 31 24 74 20 28 -3 58 -13 69 -23z"/>
<path d="M257 414 c-15 -16 -4 -20 55 -22 39 -2 59 1 53 6 -13 13 -99 25 -108
16z"/>
<path d="M380 540 c0 -12 28 -25 36 -17 3 3 -4 10 -15 17 -15 7 -21 7 -21 0z"/>
<path d="M201 156 c-8 -9 -11 -19 -7 -23 9 -9 29 13 24 27 -2 8 -8 7 -17 -4z"/>
<path d="M400 158 c0 -18 18 -34 28 -24 3 4 -2 14 -11 23 -16 16 -17 16 -17 1z"/>
<path d="M250 124 c0 -8 5 -12 10 -9 6 3 10 10 10 16 0 5 -4 9 -10 9 -5 0 -10
-7 -10 -16z"/>
<path d="M300 120 c0 -11 5 -20 10 -20 6 0 10 9 10 20 0 11 -4 20 -10 20 -5 0
-10 -9 -10 -20z"/>
<path d="M350 131 c0 -6 5 -13 10 -16 6 -3 10 1 10 9 0 9 -4 16 -10 16 -5 0
-10 -4 -10 -9z"/>
</g>
</svg>
