<?xml version="1.0" encoding="iso-8859-1"?>
<!-- Generator: Adobe Illustrator 16.0.0, SVG Export Plug-In . SVG Version: 6.00 Build 0)  -->
<!DOCTYPE svg PUBLIC "-//W3C//DTD SVG 1.1//EN" "http://www.w3.org/Graphics/SVG/1.1/DTD/svg11.dtd">
<svg version="1.1" id="Capa_1" xmlns="http://www.w3.org/2000/svg" xmlns:xlink="http://www.w3.org/1999/xlink" x="0px" y="0px"
	 width="330.007px" height="330.007px" viewBox="0 0 330.007 330.007" style="enable-background:new 0 0 330.007 330.007;"
	 xml:space="preserve">
<g>
	<g>
		<path d="M20.656,320.591h288.694c11.391,0,20.656-9.266,20.656-20.656V30.071c0-11.391-9.266-20.656-20.656-20.656H20.656
			C9.268,9.416,0,18.681,0,30.071v269.868C0,311.33,9.268,320.591,20.656,320.591z M313.807,299.939
			c0,2.458-1.999,4.456-4.456,4.456H20.656c-2.458,0-4.456-1.998-4.456-4.456V111.195h297.601v188.744H313.807z M193.155,64.354
			c0,15.554-12.604,28.157-28.152,28.157c-15.551,0-28.154-12.604-28.154-28.157c0-15.552,12.604-28.155,28.154-28.155
			C180.552,36.199,193.155,48.808,193.155,64.354z"/>
		<path d="M93.047,285.396h43.313h6.821h50.132v-47.34h0.338h43.315h6.813h50.14v-47.339v-9.614v-47.342h-50.14h-6.813h-43.315
			h-6.824h-50.132v47.342H93.047h-6.818H36.094v47.34v9.613v47.34h50.135H93.047z M135.076,277.296H94.323v-39.24h40.753V277.296z
			 M185.546,190.717v37.726h-40.75v-37.726H185.546z M185.214,277.296H144.46v-39.24h40.753V277.296z M235.681,229.956h-40.753
			v-39.239h40.753V229.956z M285.81,229.956h-40.753v-39.239h40.753V229.956z M245.057,141.86h40.753v39.242h-40.753V141.86z
			 M194.928,141.86h40.753v39.242h-40.753V141.86z M144.795,141.86h40.75v39.242h-40.75V141.86z M94.329,189.203h40.753v39.239
			H94.329V189.203z M44.194,189.203h40.753v39.239H44.194V189.203z M84.947,277.296H44.194v-39.24h40.753V277.296z"/>
		<path d="M165.003,47.484c-9.305,0-16.875,7.573-16.875,16.875c0,9.305,7.57,16.875,16.875,16.875
			c9.306,0,16.878-7.57,16.878-16.875C181.881,55.057,174.309,47.484,165.003,47.484z M165.003,75.829
			c-6.333,0-11.475-5.134-11.475-11.475c0-6.339,5.136-11.476,11.475-11.476c6.342,0,11.478,5.137,11.478,11.476
			C176.48,70.695,171.334,75.829,165.003,75.829z"/>
	</g>
</g>
<g>
</g>
<g>
</g>
<g>
</g>
<g>
</g>
<g>
</g>
<g>
</g>
<g>
</g>
<g>
</g>
<g>
</g>
<g>
</g>
<g>
</g>
<g>
</g>
<g>
</g>
<g>
</g>
<g>
</g>
</svg>
