<?xml version="1.0" standalone="no"?>
<!DOCTYPE svg PUBLIC "-//W3C//DTD SVG 20010904//EN"
 "http://www.w3.org/TR/2001/REC-SVG-20010904/DTD/svg10.dtd">
<svg version="1.0" xmlns="http://www.w3.org/2000/svg"
 width="100.000000pt" height="100.000000pt" viewBox="0 0 100.000000 100.000000"
 preserveAspectRatio="xMidYMid meet">

<g transform="translate(0.000000,100.000000) scale(0.100000,-0.100000)"
fill="#000000" stroke="none">
<path d="M255 933 c-64 -33 -156 -125 -188 -190 -25 -49 -25 -51 -7 -56 15 -4
26 6 48 47 34 60 112 135 171 165 42 22 46 28 33 47 -5 9 -21 5 -57 -13z"/>
<path d="M390 904 c-308 -82 -412 -474 -186 -700 241 -240 651 -107 709 230
51 296 -230 548 -523 470z m130 -238 c0 -79 4 -137 10 -141 6 -3 10 -14 10
-23 0 -10 25 -42 55 -72 43 -42 52 -57 43 -67 -9 -12 -22 -4 -67 41 -31 30
-65 56 -75 58 -29 5 -43 34 -28 58 8 13 12 64 12 150 0 123 1 130 20 130 19 0
20 -7 20 -134z"/>
<path d="M899 279 c-30 -60 -105 -137 -167 -172 -36 -20 -51 -34 -48 -44 3 -8
6 -17 6 -19 0 -14 105 52 149 93 62 59 127 163 108 175 -21 13 -26 9 -48 -33z"/>
</g>
</svg>
