<?xml version="1.0" standalone="no"?>
<!DOCTYPE svg PUBLIC "-//W3C//DTD SVG 20010904//EN"
 "http://www.w3.org/TR/2001/REC-SVG-20010904/DTD/svg10.dtd">
<svg version="1.0" xmlns="http://www.w3.org/2000/svg"
 width="90.000000pt" height="90.000000pt" viewBox="0 0 90.000000 90.000000"
 preserveAspectRatio="xMidYMid meet">

<g transform="translate(0.000000,90.000000) scale(0.100000,-0.100000)"
fill="#000000" stroke="none">
<path d="M135 783 c-77 -40 -79 -46 -89 -220 l-4 -82 30 -10 c17 -6 42 -11 54
-11 17 0 24 -6 24 -18 0 -23 -22 -43 -77 -71 -45 -22 -73 -55 -73 -83 0 -16
12 -18 121 -18 106 0 126 3 160 22 22 12 39 26 39 32 0 5 -18 31 -40 57 -42
50 -51 79 -25 79 12 0 13 5 7 18 -31 60 -19 143 29 204 29 36 29 39 14 68 -17
33 -62 60 -97 59 -13 0 -45 -12 -73 -26z"/>
<path d="M650 803 c-26 -10 -52 -37 -65 -67 -12 -27 -11 -32 9 -47 12 -10 31
-36 41 -59 17 -37 18 -52 9 -134 -9 -77 -15 -99 -42 -137 l-31 -46 45 -21 c38
-19 62 -22 166 -22 l121 0 -6 36 c-7 43 -36 77 -80 95 -45 17 -67 39 -67 63 0
21 27 83 48 109 11 14 14 109 6 150 -11 53 -100 100 -154 80z"/>
<path d="M381 672 c-67 -34 -82 -76 -66 -187 8 -50 23 -82 58 -121 12 -15 17
-33 15 -55 -3 -31 -9 -37 -73 -70 -72 -37 -105 -76 -105 -126 l0 -23 240 0
240 0 0 23 c0 51 -33 90 -105 127 -64 32 -70 38 -73 69 -2 22 3 40 15 55 39
43 51 73 58 144 9 97 -2 122 -68 156 -61 31 -89 32 -136 8z"/>
</g>
</svg>
