<?xml version="1.0" standalone="no"?>
<!DOCTYPE svg PUBLIC "-//W3C//DTD SVG 20010904//EN"
 "http://www.w3.org/TR/2001/REC-SVG-20010904/DTD/svg10.dtd">
<svg version="1.0" xmlns="http://www.w3.org/2000/svg"
 width="64.000000pt" height="64.000000pt" viewBox="0 0 64.000000 64.000000"
 preserveAspectRatio="xMidYMid meet">

<g transform="translate(0.000000,64.000000) scale(0.100000,-0.100000)"
fill="#000000" stroke="none">
<path d="M216 604 c-71 -22 -159 -112 -180 -184 -34 -115 -12 -206 73 -291 85
-85 176 -107 291 -73 75 22 162 109 184 184 34 115 12 206 -73 291 -85 84
-180 108 -295 73z m226 -41 c92 -51 146 -155 135 -261 -15 -145 -149 -254
-295 -239 -145 15 -254 149 -239 295 11 102 92 201 191 232 57 17 150 5 208
-27z"/>
<path d="M215 536 c-60 -28 -87 -56 -114 -116 -29 -64 -27 -125 7 -190 25 -50
56 -80 51 -49 -4 24 12 48 47 69 31 20 35 20 56 6 29 -20 67 -20 96 0 21 14
25 14 50 -2 37 -24 61 -56 54 -73 -3 -9 0 -12 9 -9 25 7 69 108 69 157 0 51
-35 135 -69 165 -34 31 -36 10 -3 -29 53 -59 65 -161 29 -231 l-13 -24 -34 35
c-19 19 -40 35 -47 35 -18 0 -16 12 5 49 14 25 15 34 5 50 -8 13 -9 22 -3 26
14 9 -15 62 -42 76 -27 15 -115 6 -135 -14 -8 -8 -16 -28 -18 -43 -1 -16 -6
-38 -11 -48 -5 -13 -1 -30 9 -48 20 -36 21 -48 4 -48 -7 0 -28 -16 -47 -35
l-34 -35 -13 24 c-7 14 -16 45 -19 68 -17 126 83 238 214 238 17 0 32 5 32 10
0 19 -85 10 -135 -14z m153 -82 c16 -11 21 -22 16 -36 -3 -11 -1 -31 6 -43 11
-20 9 -29 -17 -67 -25 -37 -34 -43 -63 -43 -29 0 -38 6 -64 44 -24 37 -27 47
-17 63 6 10 9 23 6 28 -11 17 6 51 28 60 35 14 81 11 105 -6z"/>
<path d="M257 434 c-4 -4 -7 -14 -7 -22 0 -10 4 -12 13 -4 7 5 21 6 32 1 27
-11 75 -11 75 0 0 5 -15 11 -32 14 -18 3 -42 8 -53 12 -11 3 -24 3 -28 -1z"/>
<path d="M380 540 c0 -12 28 -25 36 -17 3 3 -4 10 -15 17 -15 7 -21 7 -21 0z"/>
<path d="M201 156 c-8 -9 -11 -19 -7 -23 9 -9 29 13 24 27 -2 8 -8 7 -17 -4z"/>
<path d="M400 158 c0 -18 18 -34 28 -24 3 4 -2 14 -11 23 -16 16 -17 16 -17 1z"/>
<path d="M250 124 c0 -8 5 -12 10 -9 6 3 10 10 10 16 0 5 -4 9 -10 9 -5 0 -10
-7 -10 -16z"/>
<path d="M300 120 c0 -11 5 -20 10 -20 6 0 10 9 10 20 0 11 -4 20 -10 20 -5 0
-10 -9 -10 -20z"/>
<path d="M350 131 c0 -6 5 -13 10 -16 6 -3 10 1 10 9 0 9 -4 16 -10 16 -5 0
-10 -4 -10 -9z"/>
</g>
</svg>
