<?xml version="1.0" standalone="no"?>
<!DOCTYPE svg PUBLIC "-//W3C//DTD SVG 20010904//EN"
 "http://www.w3.org/TR/2001/REC-SVG-20010904/DTD/svg10.dtd">
<svg version="1.0" xmlns="http://www.w3.org/2000/svg"
 width="64.000000pt" height="64.000000pt" viewBox="0 0 64.000000 64.000000"
 preserveAspectRatio="xMidYMid meet">

<g transform="translate(0.000000,64.000000) scale(0.100000,-0.100000)"
fill="#000000" stroke="none">
<path d="M102 590 c-40 -29 -107 -109 -98 -117 2 -2 36 28 76 67 39 40 69 74
67 76 -2 2 -23 -9 -45 -26z"/>
<path d="M216 584 c-71 -22 -159 -112 -180 -184 -34 -115 -12 -206 73 -291 85
-85 176 -107 291 -73 75 22 162 109 184 184 34 115 12 206 -73 291 -85 84
-180 108 -295 73z m226 -41 c92 -51 146 -155 135 -261 -15 -145 -149 -254
-295 -239 -145 15 -254 149 -239 295 11 102 92 201 191 232 57 17 150 5 208
-27z"/>
<path d="M215 516 c-60 -28 -87 -56 -114 -116 -36 -79 -19 -183 42 -249 33
-36 115 -71 167 -71 52 0 134 35 167 71 34 37 63 110 63 159 0 50 -35 134 -69
164 -31 28 -39 10 -8 -22 82 -86 73 -224 -19 -300 -88 -73 -201 -68 -280 12
-85 84 -85 208 0 292 42 43 93 64 154 64 17 0 32 5 32 10 0 19 -85 10 -135
-14z"/>
<path d="M380 520 c0 -12 28 -25 36 -17 3 3 -4 10 -15 17 -15 7 -21 7 -21 0z"/>
<path d="M300 460 c0 -11 5 -20 10 -20 6 0 10 9 10 20 0 11 -4 20 -10 20 -5 0
-10 -9 -10 -20z"/>
<path d="M356 454 c-4 -9 -4 -19 -2 -21 8 -8 26 8 26 23 0 19 -16 18 -24 -2z"/>
<path d="M405 419 c-4 -6 -5 -13 -2 -16 7 -7 27 6 27 18 0 12 -17 12 -25 -2z"/>
<path d="M299 370 c-1 -27 -2 -53 -3 -58 -2 -12 84 -86 91 -79 3 4 -11 25 -31
47 -31 35 -36 47 -36 90 0 65 -20 65 -21 0z"/>
<path d="M430 370 c0 -5 6 -10 14 -10 8 0 18 5 21 10 3 6 -3 10 -14 10 -12 0
-21 -4 -21 -10z"/>
<path d="M140 310 c0 -5 9 -10 20 -10 11 0 20 5 20 10 0 6 -9 10 -20 10 -11 0
-20 -4 -20 -10z"/>
<path d="M440 310 c0 -5 9 -10 20 -10 11 0 20 5 20 10 0 6 -9 10 -20 10 -11 0
-20 -4 -20 -10z"/>
<path d="M430 260 c0 -13 28 -25 38 -16 3 4 0 11 -8 16 -20 13 -30 12 -30 0z"/>
<path d="M402 209 c2 -7 10 -15 17 -17 8 -3 12 1 9 9 -2 7 -10 15 -17 17 -8 3
-12 -1 -9 -9z"/>
<path d="M300 160 c0 -11 5 -20 10 -20 6 0 10 9 10 20 0 11 -4 20 -10 20 -5 0
-10 -9 -10 -20z"/>
<path d="M571 109 c-18 -22 -51 -53 -72 -69 -22 -16 -36 -31 -31 -34 20 -12
112 71 146 132 16 28 -13 9 -43 -29z"/>
</g>
</svg>
