<?xml version="1.0" standalone="no"?>
<!DOCTYPE svg PUBLIC "-//W3C//DTD SVG 20010904//EN"
 "http://www.w3.org/TR/2001/REC-SVG-20010904/DTD/svg10.dtd">
<svg version="1.0" xmlns="http://www.w3.org/2000/svg"
 width="100.000000pt" height="100.000000pt" viewBox="0 0 100.000000 100.000000"
 preserveAspectRatio="xMidYMid meet">

<g transform="translate(0.000000,100.000000) scale(0.100000,-0.100000)"
fill="#000000" stroke="none">
<path d="M172 989 c-48 -14 -109 -80 -123 -131 -23 -89 12 -182 88 -229 57
-36 154 -34 210 3 62 41 88 90 88 168 0 77 -26 127 -85 166 -43 29 -125 39
-178 23z m86 -127 l3 -71 -51 -26 c-48 -24 -70 -26 -70 -5 0 5 18 19 40 30 40
20 40 21 40 79 0 32 3 61 7 65 18 17 28 -7 31 -72z"/>
<path d="M653 836 c-22 -19 -28 -32 -28 -66 0 -82 88 -119 146 -61 20 20 29
39 29 61 0 22 -9 41 -29 61 -37 36 -79 38 -118 5z"/>
<path d="M525 656 c-38 -13 -78 -27 -88 -31 -19 -8 -97 -153 -97 -180 0 -8 11
-22 24 -30 35 -23 60 -7 96 64 16 32 37 61 47 64 10 2 26 8 35 12 14 5 12 -7
-12 -81 -37 -115 -32 -126 75 -204 59 -42 85 -68 89 -87 40 -163 64 -200 112
-168 30 20 30 28 -5 155 -28 98 -33 108 -75 145 -26 22 -46 45 -46 51 0 6 7
34 16 64 l16 53 25 -31 c24 -32 25 -32 113 -32 93 0 120 11 120 49 0 34 -33
51 -98 51 l-61 0 -36 60 c-40 67 -90 100 -147 100 -18 -1 -64 -11 -103 -24z"/>
<path d="M492 275 c-11 -24 -16 -25 -96 -25 -76 0 -87 -2 -96 -20 -16 -29 -3
-59 28 -67 15 -3 67 -7 117 -7 l89 -1 23 42 23 41 -38 31 -39 30 -11 -24z"/>
</g>
</svg>
