<?xml version="1.0" standalone="no"?>
<!DOCTYPE svg PUBLIC "-//W3C//DTD SVG 20010904//EN"
 "http://www.w3.org/TR/2001/REC-SVG-20010904/DTD/svg10.dtd">
<svg version="1.0" xmlns="http://www.w3.org/2000/svg"
 width="100.000000pt" height="100.000000pt" viewBox="0 0 100.000000 100.000000"
 preserveAspectRatio="xMidYMid meet">

<g transform="translate(0.000000,100.000000) scale(0.100000,-0.100000)"
fill="#000000" stroke="none">
<path d="M223 861 c-3 -11 -13 -21 -24 -24 -10 -3 -19 -10 -19 -17 0 -7 9 -14
19 -17 11 -3 21 -13 24 -24 3 -10 10 -19 17 -19 7 0 14 9 17 19 3 11 13 21 24
24 10 3 19 10 19 17 0 7 -9 14 -19 17 -11 3 -21 13 -24 24 -7 25 -27 25 -34 0z"/>
<path d="M662 865 c-48 -21 -84 -51 -109 -93 -30 -49 -29 -59 9 -68 21 -4 53
-28 90 -65 43 -44 65 -59 85 -59 35 0 101 -30 132 -60 23 -23 24 -23 38 -4 25
32 53 98 53 126 0 25 -2 26 -39 21 -104 -14 -200 72 -201 180 0 41 -7 44 -58
22z"/>
<path d="M412 669 c-67 -20 -132 -111 -132 -184 0 -13 -13 -27 -37 -40 -78
-42 -105 -129 -60 -196 43 -65 63 -69 332 -69 230 0 243 1 285 23 132 66 132
248 0 315 -25 12 -63 22 -86 22 -38 0 -44 3 -61 38 -41 77 -150 119 -241 91z"/>
<path d="M55 620 c-18 -20 -18 -21 3 -43 l22 -21 22 21 c21 22 21 23 3 43 -10
11 -21 20 -25 20 -4 0 -15 -9 -25 -20z"/>
</g>
</svg>
